<svg width="20" height="21" viewBox="0 0 20 21" fill="none" xmlns="http://www.w3.org/2000/svg">
<g id="akar-icons:twitter-fill">
<path id="Vector" d="M19.7025 4.37196C19.0067 4.6803 18.2592 4.88863 17.4733 4.9828C18.2842 4.49762 18.8908 3.73402 19.18 2.83446C18.4182 3.28695 17.5844 3.60546 16.715 3.77613C16.1303 3.15185 15.3559 2.73807 14.5119 2.59902C13.668 2.45998 12.8017 2.60345 12.0477 3.00717C11.2936 3.41089 10.694 4.05226 10.3418 4.83172C9.9896 5.61117 9.9046 6.48509 10.1 7.3178C8.55639 7.24029 7.04635 6.83909 5.66784 6.14022C4.28934 5.44135 3.07319 4.46043 2.09832 3.26113C1.76499 3.83613 1.57332 4.5028 1.57332 5.2128C1.57295 5.85196 1.73035 6.48133 2.03155 7.04507C2.33276 7.60881 2.76846 8.08949 3.29999 8.44446C2.68355 8.42485 2.08072 8.25828 1.54166 7.95863V8.00863C1.54159 8.90508 1.85168 9.77394 2.41931 10.4678C2.98693 11.1616 3.77713 11.6377 4.65582 11.8153C4.08398 11.9701 3.48444 11.9929 2.90249 11.882C3.1504 12.6533 3.63332 13.3278 4.28363 13.8111C4.93394 14.2943 5.71909 14.5621 6.52916 14.577C5.15402 15.6565 3.45573 16.242 1.70749 16.2395C1.39781 16.2395 1.08839 16.2215 0.780823 16.1853C2.55539 17.3263 4.62111 17.9318 6.73082 17.9295C13.8725 17.9295 17.7767 12.0145 17.7767 6.88446C17.7767 6.7178 17.7725 6.54946 17.765 6.3828C18.5244 5.83361 19.1799 5.15354 19.7008 4.37446L19.7025 4.37196Z" fill="#EB3238"/>
</g>
</svg>
