<svg width="20" height="21" viewBox="0 0 20 21" fill="none" xmlns="http://www.w3.org/2000/svg">
<g id="bi:whatsapp" clip-path="url(#clip0_1751_2397)">
<path id="Vector" d="M17.0012 3.16537C16.0843 2.23997 14.9924 1.5063 13.7891 1.00713C12.5858 0.507957 11.2952 0.253257 9.9925 0.257874C4.53375 0.257874 0.085 4.70537 0.08 10.1654C0.08 11.9141 0.5375 13.6154 1.40125 15.1216L0 20.2579L5.255 18.8804C6.70876 19.6715 8.33741 20.0862 9.9925 20.0866H9.9975C15.4575 20.0866 19.905 15.6391 19.91 10.1741C19.9112 8.87168 19.6548 7.58186 19.1553 6.37897C18.6559 5.17609 17.9234 4.08391 17 3.16537H17.0012ZM9.9925 18.4091C8.51625 18.4096 7.06713 18.0124 5.7975 17.2591L5.4975 17.0791L2.38 17.8966L3.2125 14.8554L3.0175 14.5416C2.19226 13.2295 1.75581 11.7104 1.75875 10.1604C1.75875 5.62787 5.455 1.93037 9.9975 1.93037C11.0797 1.92843 12.1515 2.14072 13.1513 2.55499C14.151 2.96926 15.0589 3.57732 15.8225 4.34412C16.5888 5.10794 17.1963 6.01591 17.6099 7.01566C18.0235 8.01542 18.2351 9.08718 18.2325 10.1691C18.2275 14.7179 14.5312 18.4091 9.9925 18.4091ZM14.5113 12.2416C14.265 12.1179 13.0487 11.5191 12.82 11.4341C12.5925 11.3529 12.4262 11.3104 12.2638 11.5579C12.0975 11.8041 11.6225 12.3654 11.48 12.5266C11.3375 12.6929 11.19 12.7116 10.9425 12.5891C10.6962 12.4641 9.8975 12.2041 8.9525 11.3579C8.215 10.7016 7.72125 9.88912 7.57375 9.64287C7.43125 9.39537 7.56 9.26287 7.68375 9.13912C7.7925 9.02912 7.93 8.84912 8.05375 8.70662C8.17875 8.56412 8.22 8.45912 8.30125 8.29412C8.3825 8.12662 8.34375 7.98412 8.2825 7.86037C8.22 7.73662 7.72625 6.51537 7.5175 6.02287C7.3175 5.53662 7.11375 5.60412 6.96125 5.59787C6.81875 5.58912 6.6525 5.58912 6.48625 5.58912C6.3607 5.59224 6.23716 5.62128 6.12337 5.67441C6.00958 5.72754 5.90799 5.80362 5.825 5.89787C5.5975 6.14537 4.96125 6.74412 4.96125 7.96537C4.96125 9.18662 5.84875 10.3604 5.97375 10.5266C6.09625 10.6929 7.71625 13.1916 10.2025 14.2666C10.79 14.5229 11.2525 14.6741 11.6138 14.7891C12.2075 14.9791 12.7437 14.9504 13.1712 14.8891C13.6462 14.8166 14.635 14.2891 14.8438 13.7104C15.0487 13.1304 15.0488 12.6354 14.9862 12.5316C14.925 12.4266 14.7587 12.3654 14.5113 12.2416Z" fill="#EB3238"/>
</g>
<defs>
<clipPath id="clip0_1751_2397">
<rect width="20" height="20" fill="white" transform="translate(0 0.257812)"/>
</clipPath>
</defs>
</svg>
