<svg width="110" height="110" viewBox="0 0 110 110" fill="none" xmlns="http://www.w3.org/2000/svg">
<g filter="url(#filter0_d_3960_2851)">
<rect x="20" y="16" width="70" height="70" rx="15" fill="white"/>
</g>
<g clip-path="url(#clip0_3960_2851)">
<path d="M69.1193 39.3726C68.4782 39.3726 41.5218 39.3726 40.8806 39.3726C39.5052 39.3726 38.3889 40.4888 38.3889 41.8642C38.3889 43.2396 39.5052 44.3559 40.8806 44.3559C41.5218 44.3559 68.4782 44.3559 69.1193 44.3559C70.4947 44.3559 71.611 43.2396 71.611 41.8642C71.611 40.4888 70.4947 39.3726 69.1193 39.3726Z" fill="#3A3A85"/>
<path opacity="0.15" d="M41.7109 44.356L47.7059 51.5502C49.1992 53.3409 50.0165 55.6 50.0165 57.9305V66.9071C50.0165 68.5317 51.1909 69.917 52.7922 70.1845L57.0811 70.8987C58.601 71.1529 59.9831 69.9818 59.9831 68.442V57.9322C59.9831 55.6 60.8003 53.3425 62.2937 51.5519L68.2886 44.356H41.7109Z" fill="#3A3A85"/>
</g>
<defs>
<filter id="filter0_d_3960_2851" x="0" y="0" width="110" height="110" filterUnits="userSpaceOnUse" color-interpolation-filters="sRGB">
<feFlood flood-opacity="0" result="BackgroundImageFix"/>
<feColorMatrix in="SourceAlpha" type="matrix" values="0 0 0 0 0 0 0 0 0 0 0 0 0 0 0 0 0 0 127 0" result="hardAlpha"/>
<feOffset dy="4"/>
<feGaussianBlur stdDeviation="10"/>
<feColorMatrix type="matrix" values="0 0 0 0 0.090196 0 0 0 0 0.0588235 0 0 0 0 0.286275 0 0 0 0.08 0"/>
<feBlend mode="normal" in2="BackgroundImageFix" result="effect1_dropShadow_3960_2851"/>
<feBlend mode="normal" in="SourceGraphic" in2="effect1_dropShadow_3960_2851" result="shape"/>
</filter>
<clipPath id="clip0_3960_2851">
<rect width="39.8665" height="39.8665" fill="white" transform="translate(35.0667 31.0669)"/>
</clipPath>
</defs>
</svg>
