<svg width="20" height="21" viewBox="0 0 20 21" fill="none" xmlns="http://www.w3.org/2000/svg">
<g id="wpf:message-outline">
<path id="Vector" d="M2.30769 3.33472C1.03385 3.33472 0 4.36856 0 5.64241V14.8732C0 16.147 1.03385 17.1809 2.30769 17.1809H17.6923C18.9662 17.1809 20 16.147 20 14.8732V5.64241C20 4.36856 18.9662 3.33472 17.6923 3.33472H2.30769ZM2.30769 4.87318H17.6923C18.1162 4.87318 18.4615 5.21856 18.4615 5.64241V6.02702L10 10.5947L1.53846 6.02702V5.64241C1.53846 5.21856 1.88385 4.87318 2.30769 4.87318ZM1.53846 6.24318L6.56231 10.1616L1.63462 15.2101L7.64462 10.9309L10 12.4455L12.3562 10.9309L18.3654 15.2101L13.4377 10.1616L18.4615 6.24318V14.8732C18.4573 14.9916 18.4243 15.1073 18.3654 15.2101C18.2385 15.4601 17.9915 15.6424 17.6923 15.6424H2.30769C2.00846 15.6424 1.76154 15.4601 1.63462 15.2093C1.57584 15.1067 1.54284 14.9914 1.53846 14.8732V6.24318Z" fill="#EB3238"/>
</g>
</svg>
